<svg xmlns="http://www.w3.org/2000/svg" xmlns:xlink="http://www.w3.org/1999/xlink" fill="#000000" height="800px" width="800px" id="Capa_1" viewBox="0 0 413.727 413.727" xml:space="preserve"><path d="M110.282,211.117l34.283,59.774c1.783,3.107,5.092,5.024,8.675,5.024s6.892-1.917,8.675-5.024l33.802-58.935 c12.67,7.905,22.39,19.957,25.471,36.593c1.007,5.431,6.229,9.013,11.654,8.012c5.431-1.006,9.018-6.224,8.012-11.654 c-8.273-44.663-50.44-64.654-88.561-64.653c-38.118,0-80.283,19.992-88.556,64.653L40.171,372.141 c-0.541,2.921,0.245,5.932,2.145,8.216c1.9,2.284,4.718,3.605,7.688,3.605l139.478-0.002c5.523,0,10-4.478,10-10 c0-5.523-4.478-10-10-10l-127.455,0.002L83.404,248.55C86.598,231.306,96.931,218.997,110.282,211.117z M152.295,200.254 c8.323,0,16.882,1.165,25.033,3.564l-24.088,41.998l-24.347-42.452C136.55,201.277,144.524,200.254,152.295,200.254z  M137.842,157.648c5.223,1.261,10.557,1.884,15.881,1.884c10.113,0,20.191-2.25,29.402-6.661 c14.993-7.181,26.889-19.494,34.399-35.61c2.334-5.006,0.167-10.955-4.839-13.288c-5.009-2.338-10.956-0.166-13.288,4.839 c-12.479,26.772-37.552,34.052-56.864,29.396c-17.92-4.324-36.456-20.097-40.664-51.418c25.074-2.096,47.099-8.602,64.337-19.041 c20.717,7.858,43.638,12.934,67.016,14.696c1.027,0.077,3.504,0.233,3.713,0.233c1.164,0,2.311-0.204,3.39-0.593 c1.294-0.467,2.492-1.2,3.509-2.17c2.018-1.923,3.141-4.602,3.099-7.389l-0.004-0.104c-0.083-5.471-4.543-9.694-9.996-9.694 c-0.051,0-0.103,0-0.154,0c-0.491,0-7.687-0.648-10.803-1.01c-4.67-40.728-39.765-60.569-71.855-61.696 c-0.232-0.008-0.469-0.027-0.701-0.019c-33.664,1.183-70.661,22.889-72.343,67.775c-0.89,23.796,4.448,44.861,15.437,60.928 C106.537,143.359,121.215,153.636,137.842,157.648z M153.769,19.984c22.549,0.908,45.592,13.106,51.364,38.269 c-21.285-4.493-41.479-11.929-58.069-21.597c-4.773-2.78-10.895-1.165-13.676,3.605c-2.78,4.772-1.166,10.895,3.605,13.675 c1.907,1.111,3.855,2.188,5.829,3.242c-12.029,4.974-26.086,8.231-41.653,9.609C103.234,35.83,128.805,20.989,153.769,19.984z  M360.255,205.852c-5.28-3.697-11.469-5.651-17.898-5.651c-10.194,0-19.767,4.981-25.604,13.32 c-4.79,6.835-6.63,15.125-5.181,23.345c0.947,5.371,3.232,10.358,6.605,14.458l-25.441,36.404h-63.938 c-0.089,0-0.176-0.062-0.264-0.059c-2.365-0.066-4.761,0.654-6.713,2.297c-4.226,3.556-4.77,9.846-1.214,14.073l55.717,66.197 l0.002,23.492h-36.899c-5.523,0-10,4.478-10,10c0,5.523,4.478,10,10,10h46.881c0.006,0,0.013,0,0.019,0s0.013,0,0.019,0h46.879 c5.523,0,10-4.478,10-10c0-5.523-4.478-10-10-10h-36.9l-0.002-23.498l55.719-66.217c3.556-4.227,3.012-10.531-1.214-14.087 c-1.945-1.636-4.331-2.318-6.687-2.258c-0.096-0.003-0.191,0.06-0.288,0.06h-26.701l18.252-25.8 c2.325,0.547,4.386,0.792,7.386,0.792V262.7c10,0,19.529-4.99,25.374-13.334C378.041,235.254,374.362,215.729,360.255,205.852z  M286.325,351.207l-36.582-43.48h48.175c0.005,0,0.011,0,0.016,0c0.003,0,0.007,0,0.01,0h24.964L286.325,351.207z M351.547,237.885 c-2.104,3.004-5.553,4.797-9.228,4.797c-2.304-0.001-4.524-0.704-6.428-2.037c-2.46-1.722-4.102-4.297-4.623-7.253 c-0.521-2.955,0.141-5.936,1.866-8.398c2.101-3.001,5.548-4.793,9.222-4.793c2.304,0,4.526,0.703,6.427,2.034 C353.859,225.789,355.098,232.811,351.547,237.885z"></path></svg>